<svg width="36" height="8" viewBox="0 0 36 8" fill="none" xmlns="http://www.w3.org/2000/svg">
<path d="M1.45312 3.5C1.17698 3.5 0.953125 3.72386 0.953125 4C0.953125 4.27614 1.17698 4.5 1.45313 4.5L1.45312 3.5ZM35.8303 4.35355C36.0256 4.15829 36.0256 3.84171 35.8303 3.64644L32.6483 0.464464C32.4531 0.269202 32.1365 0.269202 31.9412 0.464464C31.746 0.659726 31.746 0.976309 31.9412 1.17157L34.7696 4L31.9412 6.82843C31.746 7.02369 31.746 7.34027 31.9412 7.53553C32.1365 7.73079 32.4531 7.73079 32.6483 7.53553L35.8303 4.35355ZM1.45313 4.5L35.4768 4.5L35.4768 3.5L1.45312 3.5L1.45313 4.5Z" fill="url(#paint0_linear_1166_2597)"/>
<defs>
<linearGradient id="paint0_linear_1166_2597" x1="1.45312" y1="3.5" x2="35.4768" y2="3.5" gradientUnits="userSpaceOnUse">
<stop stop-color="white"/>
<stop offset="1"/>
</linearGradient>
</defs>
</svg>
