<svg width="11" height="11" viewBox="0 0 11 11" fill="none" xmlns="http://www.w3.org/2000/svg">
<path d="M7.8265 8.32031L5.5 7.04531L3.1735 8.32031L3.7895 5.91531L1.738 4.30031L4.444 4.09031L5.5 1.82031L6.556 4.08531L9.262 4.29531L7.2105 5.91031L7.8265 8.32031ZM5.5 0.320312C2.4585 0.320312 0 2.57031 0 5.32031C0 6.64639 0.579463 7.91816 1.61091 8.85585C2.12163 9.32014 2.72795 9.68844 3.39524 9.93971C4.06253 10.191 4.77773 10.3203 5.5 10.3203C6.95869 10.3203 8.35764 9.79353 9.38909 8.85585C10.4205 7.91816 11 6.64639 11 5.32031C11 4.6637 10.8577 4.01352 10.5813 3.4069C10.3049 2.80027 9.89981 2.24907 9.38909 1.78478C8.87837 1.32049 8.27205 0.952188 7.60476 0.700915C6.93747 0.449641 6.22227 0.320313 5.5 0.320312Z" fill="white"/>
</svg>
