<svg width="64" height="64" viewBox="0 0 64 64" fill="none" xmlns="http://www.w3.org/2000/svg">
<rect width="64" height="64" rx="8" fill="#F0F7FF"/>
<path d="M32 40.9375C35.797 40.9375 38.875 37.8595 38.875 34.0625C38.875 30.2655 35.797 27.1875 32 27.1875C28.203 27.1875 25.125 30.2655 25.125 34.0625C25.125 37.8595 28.203 40.9375 32 40.9375Z" stroke="#0075FD" stroke-width="1.5" stroke-linecap="round" stroke-linejoin="round"/>
<path d="M43.6875 29.9375C45.2889 29.9348 46.8688 30.3064 48.3012 31.0226C49.7336 31.7388 50.9788 32.7798 51.9375 34.0625" stroke="#0075FD" stroke-width="1.5" stroke-linecap="round" stroke-linejoin="round"/>
<path d="M12.0625 34.0625C13.0212 32.7798 14.2664 31.7388 15.6988 31.0226C17.1312 30.3064 18.7111 29.9348 20.3125 29.9375" stroke="#0075FD" stroke-width="1.5" stroke-linecap="round" stroke-linejoin="round"/>
<path d="M22.1016 47.1245C23.007 45.2701 24.4151 43.7073 26.1655 42.6142C27.9158 41.521 29.9379 40.9414 32.0016 40.9414C34.0652 40.9414 36.0874 41.521 37.8377 42.6142C39.588 43.7073 40.9961 45.2701 41.9016 47.1245" stroke="#0075FD" stroke-width="1.5" stroke-linecap="round" stroke-linejoin="round"/>
<path d="M20.3103 29.9375C19.2664 29.9386 18.2437 29.6425 17.3618 29.084C16.4799 28.5254 15.7752 27.7274 15.33 26.7832C14.8848 25.839 14.7175 24.7876 14.8476 23.7519C14.9777 22.7161 15.3999 21.7388 16.0649 20.9341C16.7298 20.1294 17.6101 19.5305 18.6027 19.2075C19.5954 18.8844 20.6595 18.8506 21.6706 19.1098C22.6818 19.3691 23.5984 19.9108 24.3131 20.6716C25.0279 21.4324 25.5114 22.3809 25.7071 23.4062" stroke="#0075FD" stroke-width="1.5" stroke-linecap="round" stroke-linejoin="round"/>
<path d="M38.2891 23.4062C38.4848 22.3809 38.9683 21.4324 39.6831 20.6716C40.3978 19.9108 41.3144 19.3691 42.3256 19.1098C43.3367 18.8506 44.4008 18.8844 45.3935 19.2075C46.3862 19.5305 47.2664 20.1294 47.9313 20.9341C48.5963 21.7388 49.0185 22.7161 49.1486 23.7519C49.2787 24.7876 49.1114 25.839 48.6662 26.7832C48.221 27.7274 47.5163 28.5254 46.6344 29.084C45.7525 29.6425 44.7298 29.9386 43.6859 29.9375" stroke="#0075FD" stroke-width="1.5" stroke-linecap="round" stroke-linejoin="round"/>
</svg>
