<svg width="24" height="25" viewBox="0 0 24 25" fill="none" xmlns="http://www.w3.org/2000/svg">
<path fill-rule="evenodd" clip-rule="evenodd" d="M8.53162 3.91333C10.7165 2.64384 13.402 2.66603 15.5664 3.97146C17.7095 5.30348 19.012 7.68074 18.9998 10.238C18.95 12.7785 17.5533 15.1666 15.8075 17.0127C14.7998 18.083 13.6726 19.0294 12.4488 19.8326C12.3228 19.9055 12.1848 19.9543 12.0415 19.9766C11.9036 19.9707 11.7693 19.9299 11.6508 19.858C9.78243 18.6511 8.14334 17.1106 6.81233 15.3105C5.69859 13.8079 5.06584 11.9926 5 10.111C4.99856 7.54881 6.34677 5.18283 8.53162 3.91333ZM9.79427 11.1713C10.1618 12.0774 11.0293 12.6684 11.9917 12.6684C12.6222 12.6729 13.2283 12.4204 13.6749 11.967C14.1215 11.5137 14.3716 10.8972 14.3694 10.2549C14.3727 9.27459 13.7956 8.38887 12.9074 8.01133C12.0192 7.63379 10.9952 7.83891 10.3134 8.5309C9.6317 9.2229 9.42675 10.2653 9.79427 11.1713Z" fill="black"/>
<ellipse opacity="0.4" cx="12" cy="21.9766" rx="5" ry="1" fill="black"/>
</svg>
