<svg width="505" height="483" viewBox="0 0 505 483" fill="none" xmlns="http://www.w3.org/2000/svg">
<g opacity="0.2">
<path fill-rule="evenodd" clip-rule="evenodd" d="M284.362 78.5929C328.249 89.6805 375.069 95.3808 405.834 127.389C442.07 165.091 468.537 214.432 460.261 261.604C451.717 310.301 408.586 343.377 363.582 368.201C317.621 393.554 265.353 408.546 210.067 399.614C147.929 389.575 77.4088 369.445 47.2711 317.098C17.9102 266.101 49.6235 209.734 71.7043 159.289C89.2454 119.214 114.375 81.1694 157.744 64.7123C197.158 49.7562 241.279 67.7085 284.362 78.5929Z" stroke="white"/>
<path fill-rule="evenodd" clip-rule="evenodd" d="M314.592 59.8391C372.109 75.167 406.469 129.948 432.716 180.136C455.572 223.842 460.468 271.264 448.64 316.161C437.168 359.704 413.926 403.035 369.475 420.185C327.96 436.203 282.597 404.402 236.333 398.075C175.07 389.695 102.561 420.874 59.289 377.761C14.9969 333.63 29.003 264.269 48.279 210.706C65.6178 162.526 110.428 132.93 156.865 106.623C205.222 79.2291 256.991 44.4887 314.592 59.8391Z" stroke="white"/>
<path fill-rule="evenodd" clip-rule="evenodd" d="M324.003 71.8039C379.234 75.0353 437.959 109.198 460.544 157.098C481.87 202.327 441.161 244.37 426.555 289.3C413.937 328.115 415.582 373.012 382.124 398.331C344.071 427.127 290.407 446.309 241.234 429.539C193.663 413.315 182.153 358.739 152.62 320.062C119.511 276.701 45.4129 240.916 60.5333 192.887C75.8336 144.286 159.879 164.73 208.565 142.355C251.714 122.526 274.161 68.8879 324.003 71.8039Z" stroke="white"/>
<path fill-rule="evenodd" clip-rule="evenodd" d="M298.809 63.2144C351.789 74.163 393.165 117.543 416.699 163.394C437.793 204.493 420.109 246.956 415.46 290.49C409.776 343.709 433.598 412.345 386.972 441.721C340.07 471.271 275.196 430.214 217.347 415.308C158.886 400.243 85.1273 404.323 53.2789 355.733C21.5239 307.285 55.1477 250.543 77.1199 201.366C94.4771 162.518 125.202 134.248 162.671 110.898C204.071 85.0986 247.448 52.6004 298.809 63.2144Z" stroke="white"/>
<path fill-rule="evenodd" clip-rule="evenodd" d="M288.412 82.594C328.73 97.9077 375.485 98.9007 403.316 130.42C434.241 165.444 440.413 210.416 439.528 253.737C438.372 310.314 444.036 375.662 397.611 409.683C348.133 445.942 273.612 441.521 209.875 422.034C148.759 403.348 95.6473 362.079 66.7683 308.529C40.3097 259.468 52.608 206.003 66.0617 155.366C78.9755 106.761 89.7261 47.2859 140.601 30.6352C189.717 14.5606 237.649 63.3131 288.412 82.594Z" stroke="white"/>
<path fill-rule="evenodd" clip-rule="evenodd" d="M280.309 106.773C335.542 119.356 411.664 102.336 438.334 149.481C465.294 197.139 398.658 237.8 381.839 286.25C368.103 325.819 388.52 381.891 350.301 403.079C312.001 424.311 263.401 387.763 217.73 377.228C168.935 365.972 106.816 379.198 77.8725 340.235C48.7984 301.095 84.8003 254.66 93.7919 210.383C103.197 164.068 87.8659 103.296 130.836 79.4256C173.923 55.4911 228.873 95.0544 280.309 106.773Z" stroke="white"/>
<path fill-rule="evenodd" clip-rule="evenodd" d="M286.548 91.9653C326.34 104.408 356.574 131.217 383.708 161.537C417.283 199.054 458.255 236.592 457.751 283.27C457.172 336.985 432.975 394.97 380.963 415.995C330.737 436.299 274.426 397.469 220.011 379.374C171.968 363.398 118.999 355.994 87.2641 318.331C52.5741 277.16 32.8765 222.459 48.2005 175.465C62.8565 130.52 113.643 108.549 161.091 91.9271C200.71 78.0476 244.376 78.7788 286.548 91.9653Z" stroke="white"/>
<path fill-rule="evenodd" clip-rule="evenodd" d="M284.042 83.5855C330.817 96.6732 361.48 136.294 388.081 174.836C414.993 213.828 438.107 255.777 433.237 299.75C427.843 348.445 409.099 402.171 360.874 420.481C314.519 438.081 263.092 403.016 214.829 382.674C177.332 366.869 142.929 348.343 117.614 317.948C88.7001 283.231 58.8565 244.034 65.0022 202.775C71.425 159.656 109.115 129.562 148.9 107.913C189.226 85.9693 236.69 70.3364 284.042 83.5855Z" stroke="white"/>
</g>
</svg>
